<svg xmlns="http://www.w3.org/2000/svg" xmlns:xlink="http://www.w3.org/1999/xlink" width="58" height="80" viewBox="0 0 58 80">
  <defs>
    <clipPath id="clip-path">
      <rect id="Rectangle_1224" data-name="Rectangle 1224" width="60.256" height="84.07" fill="none" stroke="#124a71" stroke-width="2"/>
    </clipPath>
    <linearGradient id="linear-gradient" x1="0.5" x2="0.5" y2="1" gradientUnits="objectBoundingBox">
      <stop offset="0" stop-color="#124a71"/>
      <stop offset="1" stop-color="#0065bd"/>
    </linearGradient>
    <clipPath id="clip-HRTScotland_logo">
      <rect width="58" height="80"/>
    </clipPath>
  </defs>
  <g id="HRTScotland_logo" clip-path="url(#clip-HRTScotland_logo)">
    <rect width="58" height="80" fill="#fff"/>
    <g id="Group_1795" data-name="Group 1795" transform="translate(-612.095 -196.381)">
      <g id="Group_1787" data-name="Group 1787" transform="translate(612.095 192.381)">
        <g id="Group_1786" data-name="Group 1786" transform="translate(0 0)">
          <g id="Group_1785" data-name="Group 1785" transform="translate(0 0)" clip-path="url(#clip-path)">
            <g id="Rectangle_1232" data-name="Rectangle 1232" transform="translate(38.045 19.841)" stroke="#fff" stroke-width="2" fill="url(#linear-gradient)">
              <rect width="3.09" height="30.92" stroke="none"/>
              <rect x="-1" y="-1" width="5.09" height="32.92" fill="none"/>
            </g>
            <g id="Rectangle_1233" data-name="Rectangle 1233" transform="translate(45.383 26.536)" stroke="#fff" stroke-width="2" fill="url(#linear-gradient)">
              <rect width="3.09" height="8.26" stroke="none"/>
              <rect x="-1" y="-1" width="5.09" height="10.26" fill="none"/>
            </g>
            <path id="Path_1386" data-name="Path 1386" d="M22.622,10.618S17,3.872,18.126,2.749,19.249.5,21.5.5s1.125-1.123,4.5,0a12.289,12.289,0,0,1,4.5,2.25s1.125-1.125,0,1.123-2.866,5.457-2.556,5.54-5.313,1.206-5.313,1.206" transform="translate(15.107 5.131)" fill="#951b80"/>
            <g id="Path_1404" data-name="Path 1404" transform="translate(12.749 34.063)" fill="#0365bd">
              <path d="M 38.66897583007812 5.650042533874512 L 1.999996066093445 5.650042533874512 C 0.6214960217475891 5.650042533874512 -0.5000039935112 4.528542518615723 -0.5000039935112 3.150042772293091 L -0.5000039935112 2.00000262260437 C -0.5000039935112 0.621502697467804 0.6214960217475891 -0.4999972879886627 1.999996066093445 -0.4999972879886627 L 38.66897583007812 -0.4999972879886627 C 40.04747772216797 -0.4999972879886627 41.16897583007812 0.621502697467804 41.16897583007812 2.00000262260437 L 41.16897583007812 3.150042772293091 C 41.16897583007812 4.528542518615723 40.04747772216797 5.650042533874512 38.66897583007812 5.650042533874512 Z" stroke="none"/>
              <path d="M 1.999996185302734 2.86102294921875e-06 C 0.8954277038574219 2.86102294921875e-06 -3.814697265625e-06 0.8954324722290039 -3.814697265625e-06 2.00000262260437 L -3.814697265625e-06 3.150042772293091 C -3.814697265625e-06 4.254612922668457 0.8954277038574219 5.150042533874512 1.999996185302734 5.150042533874512 L 38.66897583007812 5.150042533874512 C 39.77353668212891 5.150042533874512 40.66897583007812 4.254612922668457 40.66897583007812 3.150042772293091 L 40.66897583007812 2.00000262260437 C 40.66897583007812 0.8954324722290039 39.77353668212891 2.86102294921875e-06 38.66897583007812 2.86102294921875e-06 L 1.999996185302734 2.86102294921875e-06 M 1.999996185302734 -0.9999971389770508 L 38.66897583007812 -0.9999971389770508 C 40.32318496704102 -0.9999971389770508 41.66897583007812 0.3457927703857422 41.66897583007812 2.00000262260437 L 41.66897583007812 3.150042772293091 C 41.66897583007812 4.804252624511719 40.32318496704102 6.150042533874512 38.66897583007812 6.150042533874512 L 1.999996185302734 6.150042533874512 C 0.3457870483398438 6.150042533874512 -1.000003814697266 4.804252624511719 -1.000003814697266 3.150042772293091 L -1.000003814697266 2.00000262260437 C -1.000003814697266 0.3457927703857422 0.3457870483398438 -0.9999971389770508 1.999996185302734 -0.9999971389770508 Z" stroke="none" fill="#fff"/>
            </g>
            <path id="Path_1391" data-name="Path 1391" d="M4.323,55.179l6.23-6.23H29.932A8.37,8.37,0,0,0,35.851,46.5L47.264,35.084a2.421,2.421,0,0,0-3.054-3.726l-10.8,6.508H16.793" transform="translate(4.912 26.733)" fill="none" stroke="#124a71" stroke-miterlimit="10" stroke-width="2"/>
            <path id="Path_1392" data-name="Path 1392" d="M.354,42.354l9.094-9.1a4.128,4.128,0,0,1,2.918-1.208h10.1A1.928,1.928,0,0,1,24.4,33.978v2.88" transform="translate(2.012 27.536)" fill="none" stroke="#124a71" stroke-miterlimit="10" stroke-width="2"/>
            <path id="Path_1397" data-name="Path 1397" d="M11.72,13.38S6.57,7.2,7.6,6.17s1.03-2.061,3.091-2.061,1.03-1.03,4.121,0A11.25,11.25,0,0,1,18.93,6.17s1.031-1.031,0,1.03-2.625,5-2.343,5.074S11.72,13.38,11.72,13.38" transform="translate(5.878 6.788)" fill="#005e28"/>
            <g id="Path_1403" data-name="Path 1403" transform="translate(28.183 28.925)" fill="url(#linear-gradient)">
              <path d="M 3.590023756027222 22.33638000488281 L 3.090023756027222 22.33638000488281 L 3.666152906589559e-06 22.33638000488281 L -0.4999963343143463 22.33638000488281 L -0.4999963343143463 21.83638000488281 L -0.4999963343143463 9.561157412463217e-07 L -0.4999963343143463 -0.4999990463256836 L 3.666152906589559e-06 -0.4999990463256836 L 3.090023756027222 -0.4999990463256836 L 3.590023756027222 -0.4999990463256836 L 3.590023756027222 9.561157412463217e-07 L 3.590023756027222 21.83638000488281 L 3.590023756027222 22.33638000488281 Z" stroke="none"/>
              <path d="M 3.576278686523438e-06 1.9073486328125e-06 L 3.576278686523438e-06 21.83638000488281 L 3.090023756027222 21.83638000488281 L 3.090023756027222 1.9073486328125e-06 L 3.576278686523438e-06 1.9073486328125e-06 M -0.9999961853027344 -0.9999980926513672 L 4.090023517608643 -0.9999980926513672 L 4.090023517608643 22.83638000488281 L -0.9999961853027344 22.83638000488281 L -0.9999961853027344 -0.9999980926513672 Z" stroke="none" fill="#fff"/>
            </g>
            <rect id="Rectangle_1231" data-name="Rectangle 1231" width="3.09" height="11.679" transform="translate(17.976 23.622)" fill="url(#linear-gradient)"/>
            <path id="Path_1401" data-name="Path 1401" d="M16.91,16.363s-4.776-5.732-3.821-6.687.955-1.911,2.866-1.911.955-.957,3.821,0A10.456,10.456,0,0,1,23.6,9.676s.955-.955,0,.955-2.435,4.636-2.172,4.705-4.515,1.026-4.515,1.026" transform="translate(11.027 9.483)" fill="#896a0d"/>
            <path id="Path_1402" data-name="Path 1402" d="M21.527,14.873a3.606,3.606,0,1,1-3.606-3.6,3.606,3.606,0,0,1,3.606,3.6" transform="translate(11.806 12.354)" fill="#124a71"/>
            <path id="Path_1398" data-name="Path 1398" d="M16.511,11.4a3.862,3.862,0,1,1-3.863-3.863A3.863,3.863,0,0,1,16.511,11.4" transform="translate(6.615 9.628)" fill="#124a71"/>
            <path id="Path_1387" data-name="Path 1387" d="M27.079,8.939a3.863,3.863,0,1,1-3.863-3.863,3.863,3.863,0,0,1,3.863,3.863" transform="translate(16.116 7.753)" fill="#124a71"/>
            <path id="Path_1393" data-name="Path 1393" d="M26.954,12.936S22.262,7.3,23.2,6.366s.938-1.876,2.816-1.876.938-.94,3.754,0a10.267,10.267,0,0,1,3.754,1.876s.938-.938,0,.938-2.393,4.555-2.136,4.624-4.434,1.007-4.434,1.007" transform="translate(17.998 9.647)" fill="#302682"/>
            <path id="Path_1394" data-name="Path 1394" d="M30.563,11.58a3.606,3.606,0,1,1-3.6-3.605,3.605,3.605,0,0,1,3.6,3.605" transform="translate(19.893 12.042)" fill="#124a71"/>
            <rect id="Rectangle_1227" data-name="Rectangle 1227" width="40.669" height="5.15" rx="2" transform="translate(12.749 48.187)" fill="#0365bd"/>
            <rect id="Rectangle_1234" data-name="Rectangle 1234" width="3.09" height="8.26" transform="translate(45.383 26.536)" fill="url(#linear-gradient)"/>
          </g>
        </g>
      </g>
    </g>
  </g>
</svg>
