<?xml version="1.0" standalone="no"?>
<!DOCTYPE svg PUBLIC "-//W3C//DTD SVG 20010904//EN"
 "http://www.w3.org/TR/2001/REC-SVG-20010904/DTD/svg10.dtd">
<svg version="1.0" xmlns="http://www.w3.org/2000/svg"
 width="260.000000pt" height="260.000000pt" viewBox="0 0 260.000000 260.000000"
 preserveAspectRatio="xMidYMid meet">
<metadata>
Created by potrace 1.11, written by Peter Selinger 2001-2013
</metadata>
<g transform="translate(0.000000,260.000000) scale(0.100000,-0.100000)"
fill="#000000" stroke="none">
<path d="M855 2242 l6 -58 -98 -81 c-111 -92 -266 -246 -345 -344 -164 -201
-245 -393 -276 -651 l-8 -68 25 -1 c14 -1 32 -1 38 0 9 1 13 -12 13 -38 0 -36
3 -40 27 -43 l28 -3 0 -183 c0 -113 -3 -186 -10 -192 -5 -4 -23 -11 -40 -14
-53 -12 -102 -68 -123 -142 -23 -81 -54 -74 341 -73 193 0 357 0 364 0 6 -1
10 -10 8 -21 -4 -20 0 -20 493 -18 389 2 497 6 498 16 1 6 2 15 3 20 0 4 163
6 362 5 l360 -1 -6 41 c-4 23 -13 56 -20 72 -17 42 -72 93 -109 101 -17 3 -36
10 -41 14 -6 5 -10 79 -10 192 0 155 2 183 15 184 8 1 21 2 28 3 7 1 12 16 12
42 0 32 3 40 18 38 44 -4 61 1 57 19 -1 10 -6 45 -10 77 -24 199 -105 404
-221 557 -47 62 -152 188 -165 198 -4 3 -47 43 -96 90 -48 47 -121 112 -162
145 l-73 59 6 58 5 58 -450 0 -449 0 5 -58z m-480 -1474 c0 -176 -2 -191 -18
-194 -20 -3 -35 26 -31 60 1 11 3 90 3 174 1 151 1 152 24 152 l22 0 0 -192z
m293 1 c0 -104 -3 -190 -7 -190 -3 -1 -54 -2 -113 -3 l-108 -1 -1 30 c0 16 -1
102 -2 191 l-2 161 116 0 117 1 0 -189z m150 -2 l-3 -192 -30 -1 c-56 -1 -55
-6 -55 195 l0 187 45 1 45 2 -2 -192z m249 -2 l3 -190 -93 0 -92 1 -1 190 -1
191 91 -1 91 -1 2 -190z m203 4 c0 -141 -3 -188 -12 -191 -7 -2 -38 -4 -68 -4
l-55 1 -3 180 c-1 99 0 185 2 191 3 8 27 12 70 11 l66 -1 0 -187z m198 -4 l2
-191 -67 1 -68 1 -3 191 -2 192 67 -2 68 -2 3 -190z m243 186 c3 -16 5 -357 2
-367 -2 -6 -37 -10 -91 -9 l-87 1 -2 190 -3 190 90 1 c50 0 91 -2 91 -6z m159
-181 c0 -204 2 -197 -59 -196 l-33 1 -2 192 -1 191 48 0 47 1 0 -189z m299 -1
c-1 -131 -5 -189 -13 -191 -10 -4 -200 -3 -218 1 -6 1 -9 361 -2 372 2 4 55 6
119 6 l115 0 -1 -188z m102 149 c1 -63 1 -278 0 -315 -1 -24 -5 -31 -18 -29
-16 3 -18 21 -21 194 -2 187 -2 192 18 192 17 0 20 -7 21 -42z"/>
</g>
</svg>
