<?xml version="1.0" standalone="no"?>
<!DOCTYPE svg PUBLIC "-//W3C//DTD SVG 20010904//EN"
 "http://www.w3.org/TR/2001/REC-SVG-20010904/DTD/svg10.dtd">
<svg version="1.0" xmlns="http://www.w3.org/2000/svg"
 width="260.000000pt" height="260.000000pt" viewBox="0 0 260.000000 260.000000"
 preserveAspectRatio="xMidYMid meet">
<metadata>
Created by potrace 1.14, written by Peter Selinger 2001-2017
</metadata>
<g transform="translate(0.000000,260.000000) scale(0.100000,-0.100000)"
fill="#000000" stroke="none">
<path d="M1247 2442 c-24 -26 -22 -85 3 -107 15 -14 20 -31 20 -72 0 -34 -4
-52 -10 -48 -5 3 -10 19 -10 34 0 54 -68 80 -118 45 -33 -23 -31 -86 4 -113
15 -12 36 -21 48 -21 12 0 36 -15 54 -33 31 -32 32 -35 32 -125 0 -51 -4 -92
-8 -92 -4 0 -36 28 -70 63 -46 46 -62 70 -62 90 0 37 -41 77 -78 77 -37 0 -72
-37 -72 -76 0 -37 36 -74 71 -74 18 0 51 -27 122 -98 l97 -97 0 -273 c0 -149
-3 -272 -7 -272 -4 0 -23 16 -43 35 l-36 35 -22 -23 -22 -23 80 -79 80 -80 82
83 83 82 -23 22 -22 22 -38 -37 c-21 -20 -41 -37 -45 -37 -4 0 -7 102 -7 228
l0 227 133 133 c101 101 138 132 158 132 54 0 83 77 44 120 -24 26 -85 27
-108 2 -10 -10 -17 -32 -17 -48 0 -24 -18 -48 -98 -127 -53 -53 -101 -97 -105
-97 -4 0 -7 25 -7 56 0 53 2 58 51 110 42 44 58 54 85 54 23 0 38 7 53 26 24
30 26 43 10 77 -32 69 -139 48 -139 -28 0 -29 -33 -75 -53 -75 -4 0 -7 62 -7
138 0 126 2 141 20 157 26 24 27 86 2 108 -25 23 -85 22 -105 -1z"/>
<path d="M1041 1177 l-22 -24 181 -173 181 -173 -38 -39 c-20 -21 -41 -38 -46
-38 -5 0 -86 77 -181 170 -95 94 -177 170 -182 170 -5 0 -17 -11 -26 -24 -17
-23 -17 -24 45 -82 34 -32 145 -139 246 -237 l184 -179 -41 -40 -40 -41 -244
241 -245 242 -24 -26 -24 -25 70 -67 c148 -140 545 -535 545 -541 0 -4 -18
-25 -40 -46 l-40 -39 -310 309 -310 310 -22 -23 -23 -22 333 -333 332 -332
332 332 333 333 -23 22 -22 23 -243 -243 -242 -242 -43 43 -42 42 240 240 239
239 -21 23 -22 24 -178 -178 -178 -177 -40 39 -40 39 176 177 177 177 -17 28
-18 27 -119 -119 -119 -119 -42 43 -43 42 115 115 115 115 -23 22 -22 23 -115
-115 -115 -115 -87 85 c-49 47 -102 98 -119 113 l-30 27 -23 -23z"/>
</g>
</svg>
