<?xml version="1.0" standalone="no"?>
<!DOCTYPE svg PUBLIC "-//W3C//DTD SVG 20010904//EN"
 "http://www.w3.org/TR/2001/REC-SVG-20010904/DTD/svg10.dtd">
<svg version="1.0" xmlns="http://www.w3.org/2000/svg"
 width="260.000000pt" height="260.000000pt" viewBox="0 0 260.000000 260.000000"
 preserveAspectRatio="xMidYMid meet">
<metadata>
Created by potrace 1.11, written by Peter Selinger 2001-2013
</metadata>
<g transform="translate(0.000000,260.000000) scale(0.100000,-0.100000)"
fill="#000000" stroke="none">
<path d="M579 2583 c0 -10 -1 -75 -1 -144 l-1 -127 -266 0 c-146 0 -276 -1
-288 -1 l-23 -1 0 -433 0 -434 145 0 145 0 0 288 0 289 289 0 290 0 0 290 0
290 -144 0 c-131 0 -145 -2 -146 -17z"/>
<path d="M1730 2456 l0 -144 -257 0 c-142 0 -272 -1 -288 -1 l-30 -1 0 -285
c0 -157 -2 -286 -5 -286 -3 -1 -130 -2 -282 -3 -152 0 -280 -4 -283 -8 -4 -4
-8 -134 -9 -289 l-1 -282 -288 0 -287 0 2 -435 3 -436 130 1 c72 1 136 2 143
2 9 1 12 65 12 286 0 221 3 285 13 286 6 1 131 3 277 4 146 1 271 3 277 4 10
1 12 67 12 282 0 154 2 283 5 287 3 3 133 6 288 6 l283 1 0 285 0 285 290 5
290 5 0 285 0 285 -147 3 -148 3 0 -145z"/>
<path d="M2327 2312 c-15 -3 -17 -29 -17 -288 0 -220 -3 -284 -12 -285 -7 -1
-132 -3 -278 -4 -146 -1 -270 -3 -277 -4 -9 -1 -12 -72 -13 -283 0 -155 -2
-284 -5 -286 -2 -3 -131 -5 -287 -5 l-283 0 0 -285 c0 -162 -4 -286 -9 -289
-5 -4 -134 -6 -288 -6 -249 0 -278 -1 -279 -16 -1 -22 -1 -533 0 -548 1 -10
37 -13 146 -13 l145 0 0 133 c-1 72 -1 137 -1 143 1 8 79 11 264 12 144 0 273
1 287 1 l25 1 0 285 c0 245 2 286 15 289 8 2 134 3 280 2 146 -1 270 -1 275 1
7 2 10 102 10 284 0 160 4 283 9 286 5 3 134 6 288 6 l278 0 -2 435 -3 435
-126 1 c-69 1 -133 0 -142 -2z"/>
<path d="M2310 868 l0 -288 -32 -1 c-18 0 -148 -1 -288 -2 l-255 -2 -2 -288
-2 -288 147 3 147 3 1 130 c1 72 2 135 3 141 1 8 84 11 274 12 149 1 278 1
285 2 10 0 12 90 10 433 l-3 432 -142 1 -143 1 0 -289z"/>
</g>
</svg>
