<?xml version="1.0" standalone="no"?>
<!DOCTYPE svg PUBLIC "-//W3C//DTD SVG 20010904//EN"
 "http://www.w3.org/TR/2001/REC-SVG-20010904/DTD/svg10.dtd">
<svg version="1.0" xmlns="http://www.w3.org/2000/svg"
 width="260.000000pt" height="260.000000pt" viewBox="0 0 260.000000 260.000000"
 preserveAspectRatio="xMidYMid meet">
<metadata>
Created by potrace 1.11, written by Peter Selinger 2001-2013
</metadata>
<g transform="translate(0.000000,260.000000) scale(0.100000,-0.100000)"
fill="#000000" stroke="none">
<path d="M1485 2499 c-44 -4 -102 -12 -130 -19 -200 -46 -365 -228 -396 -435
l-12 -79 33 -28 c74 -61 197 -92 270 -66 22 7 25 13 24 56 -4 101 66 210 167
263 36 20 59 24 129 24 75 0 91 -4 139 -30 140 -77 196 -248 127 -389 -62
-126 -189 -188 -332 -162 -27 5 -32 2 -46 -29 -15 -34 -15 -35 13 -66 38 -43
52 -90 47 -155 -4 -43 -1 -57 14 -71 14 -13 18 -13 19 -2 10 165 41 236 129
300 77 56 171 75 273 57 41 -8 52 -6 68 8 53 48 83 267 54 394 -54 233 -226
396 -450 426 -27 3 -52 7 -55 8 -3 1 -41 -1 -85 -5z"/>
<path d="M1069 2487 c-2 -3 -35 -7 -74 -10 -135 -11 -254 -53 -369 -130 -48
-32 -56 -41 -45 -52 8 -7 81 -74 163 -150 l150 -137 17 72 c26 113 89 228 163
297 34 32 75 68 91 80 l30 22 -47 0 c-25 1 -53 3 -60 6 -8 3 -16 4 -19 2z"/>
<path d="M497 2238 c-13 -18 -37 -46 -51 -63 -14 -16 -26 -33 -26 -37 0 -3 15
-18 33 -33 159 -134 387 -361 424 -424 34 -56 52 -136 46 -201 -4 -49 -3 -51
18 -48 50 7 86 164 59 257 -4 16 -6 31 -4 34 2 2 21 1 42 -2 89 -15 227 23
252 69 13 24 20 22 -105 24 -77 1 -109 6 -140 20 -76 37 -220 155 -395 321
-76 73 -122 115 -125 115 -2 0 -14 -15 -28 -32z"/>
<path d="M1472 2150 c-148 -67 -194 -249 -96 -377 86 -113 262 -125 361 -24
50 50 73 105 73 174 0 75 -27 133 -84 184 -72 64 -171 80 -254 43z m166 -120
c58 -36 76 -117 38 -175 -75 -115 -251 -48 -233 89 8 59 61 106 119 106 25 0
57 -8 76 -20z"/>
<path d="M362 2058 c-31 -53 -71 -160 -87 -240 -14 -66 -24 -273 -13 -283 2
-3 17 12 33 33 62 83 174 156 304 198 42 14 82 27 90 30 11 3 5 13 -20 36 -19
17 -81 74 -139 127 -163 149 -144 138 -168 99z"/>
<path d="M670 1730 c-192 -52 -324 -147 -380 -272 -67 -151 -65 -390 4 -526
115 -226 394 -339 666 -270 95 23 134 57 121 104 -21 73 6 185 65 271 55 81
121 124 233 153 62 16 74 36 15 23 -42 -9 -112 -5 -137 9 -12 6 -35 22 -50 34
-26 22 -30 23 -57 9 -39 -20 -42 -27 -42 -102 0 -119 -61 -219 -166 -270 -47
-23 -70 -28 -132 -28 -67 0 -82 4 -134 33 -87 49 -127 101 -151 192 -46 176
89 356 275 366 30 1 59 3 64 3 14 2 0 124 -19 164 -18 38 -92 128 -103 126 -4
0 -36 -9 -72 -19z"/>
<path d="M1281 1713 c-47 -29 -135 -51 -187 -48 l-31 2 -1 -68 c-1 -77 -13
-130 -42 -176 l-19 -32 44 33 c57 44 102 59 193 65 7 1 12 17 12 44 0 59 23
131 55 172 14 19 25 35 23 35 -2 -1 -23 -13 -47 -27z"/>
<path d="M1343 1667 c-38 -57 -46 -118 -29 -212 5 -24 4 -35 -3 -31 -21 13
-138 7 -177 -9 -40 -16 -84 -52 -84 -67 0 -5 7 -19 16 -33 l15 -23 66 30 c119
56 236 31 320 -68 28 -32 45 -44 65 -44 16 0 28 5 28 10 0 6 -4 10 -9 10 -22
0 -126 118 -149 168 -30 66 -28 154 5 220 l21 42 -28 20 c-16 11 -30 20 -32
20 -1 0 -13 -15 -25 -33z"/>
<path d="M1799 1636 c-25 -7 -66 -24 -92 -39 -97 -57 -130 -140 -123 -310 l4
-106 -66 0 c-132 1 -226 -29 -300 -96 -103 -93 -150 -251 -103 -349 41 -84
150 -146 257 -146 31 0 107 11 168 24 186 41 170 38 281 51 33 4 61 8 63 10 1
1 -26 21 -60 44 -67 45 -62 45 -205 26 -101 -14 -240 -3 -299 21 -41 17 -74
59 -74 93 0 147 143 243 388 260 8 1 12 19 12 57 0 71 26 186 53 233 40 68
102 105 160 94 42 -8 102 -68 127 -124 43 -101 31 -238 -37 -419 l-36 -95 18
-50 c18 -51 75 -148 94 -159 6 -4 11 1 12 11 3 106 38 323 72 443 27 97 32
132 32 220 0 92 -4 112 -27 162 -29 62 -70 108 -119 134 -40 20 -140 25 -200
10z"/>
<path d="M1436 1478 c5 -31 22 -78 27 -78 2 0 3 10 1 23 -1 12 -3 27 -3 33 -1
5 -8 19 -16 30 -13 18 -14 18 -9 -8z"/>
<path d="M769 1400 c-169 -30 -253 -233 -156 -376 113 -167 370 -132 433 59
19 56 14 139 -11 188 -48 92 -162 147 -266 129z m108 -130 c45 -27 66 -73 60
-128 -15 -139 -209 -152 -247 -16 -12 44 -12 50 9 90 38 70 114 93 178 54z"/>
<path d="M1765 1366 c-20 -29 -42 -111 -49 -181 -15 -137 -15 -135 -55 -136
-68 -3 -86 -5 -147 -18 -118 -25 -181 -84 -140 -130 17 -18 33 -22 176 -37 75
-8 126 -22 180 -49 61 -31 116 -23 140 20 10 17 15 35 11 40 -3 6 -6 110 -6
232 0 209 -1 223 -21 250 -28 38 -68 42 -89 9z"/>
<path d="M1240 1294 c0 -9 68 -34 95 -34 35 0 31 16 -6 29 -33 12 -89 15 -89
5z"/>
<path d="M1864 765 c25 -19 37 -19 30 0 -4 8 -16 15 -28 15 -21 -1 -21 -1 -2
-15z"/>
<path d="M1970 671 c0 -6 4 -13 10 -16 6 -3 7 1 4 9 -7 18 -14 21 -14 7z"/>
<path d="M700 599 c-179 -15 -316 -108 -398 -272 -31 -64 -69 -183 -60 -192 2
-3 31 5 64 17 122 44 251 24 339 -53 l37 -33 23 28 c43 54 55 148 26 196 -8
12 -14 9 -37 -13 -39 -39 -104 -40 -143 -2 -52 51 -32 173 34 205 37 18 131
16 177 -3 126 -54 166 -218 97 -403 -12 -30 -19 -57 -17 -60 9 -8 127 82 158
121 58 71 74 120 74 220 0 70 -5 103 -23 147 -24 62 -21 61 -136 82 -117 22
-122 22 -215 15z"/>
<path d="M1807 604 c-1 -1 -27 -4 -57 -7 -78 -9 -155 -26 -173 -40 -30 -23
-56 -126 -54 -212 4 -129 58 -221 176 -300 30 -19 55 -34 57 -32 2 2 -8 37
-22 78 -47 134 -30 282 39 348 55 51 180 71 243 38 36 -19 64 -70 64 -120 0
-42 -37 -99 -70 -107 -37 -9 -93 6 -109 29 -7 12 -17 21 -21 21 -12 0 -31 -53
-32 -88 -1 -30 47 -142 61 -142 3 0 31 18 60 40 91 68 204 85 311 45 84 -31
82 -31 75 1 -52 232 -196 396 -382 434 -43 8 -160 19 -166 14z"/>
<path d="M1123 575 c-2 -8 3 -37 12 -64 50 -153 23 -332 -66 -431 -12 -14 -34
-37 -48 -52 l-25 -28 308 0 308 0 -47 53 c-25 28 -60 81 -78 117 -30 60 -32
71 -32 170 0 58 3 117 7 131 8 26 6 27 -30 25 -65 -4 -171 22 -238 58 -50 26
-66 31 -71 21z"/>
<path d="M342 71 c-31 -8 -112 -56 -112 -66 0 -3 87 -5 193 -5 l192 0 -25 21
c-14 11 -38 27 -53 35 -34 18 -148 27 -195 15z"/>
<path d="M2102 70 c-30 -7 -112 -55 -112 -65 0 -3 87 -5 193 -5 l192 1 -30 25
c-55 45 -158 64 -243 44z"/>
</g>
</svg>
